<svg width="34" height="34" viewBox="0 0 34 34" fill="none" xmlns="http://www.w3.org/2000/svg">
<path fill-rule="evenodd" clip-rule="evenodd" d="M20.7793 25.4181C21.9675 25.9379 22.4131 24.8487 22.4131 24.8487L25.557 9.05508C25.5322 7.99062 24.0964 8.63425 24.0964 8.63425L6.49568 15.5409C6.49568 15.5409 5.65401 15.8379 5.72827 16.3578C5.80254 16.8776 6.47092 17.1252 6.47092 17.1252L10.9021 18.6105C10.9021 18.6105 12.2388 22.9921 12.5111 23.8338C12.7587 24.6507 12.9815 24.6754 12.9815 24.6754C13.229 24.7745 13.4518 24.6012 13.4518 24.6012L16.3234 22.0019L20.7793 25.4181ZM21.5467 11.8524C21.5467 11.8524 22.1656 11.481 22.1408 11.8524C22.1408 11.8524 22.2398 11.9019 21.918 12.2484C21.6209 12.5455 14.6153 18.8332 13.6746 19.6749C13.6003 19.7244 13.5508 19.7987 13.5508 19.8977L13.2785 22.2247C13.229 22.4722 12.9072 22.497 12.8329 22.2742L11.6695 18.4619C11.62 18.3134 11.6695 18.1401 11.818 18.0411L21.5467 11.8524Z" fill="white"/>
</svg>
