<svg width="34" height="34" viewBox="0 0 34 34" fill="none" xmlns="http://www.w3.org/2000/svg">
<path fill-rule="evenodd" clip-rule="evenodd" d="M27.8132 11.712C27.9709 11.1867 27.8132 10.8005 27.0633 10.8005H24.5835C23.953 10.8005 23.6625 11.1341 23.5049 11.502C23.5049 11.502 22.2437 14.5756 20.4572 16.5721C19.8793 17.1501 19.6166 17.3338 19.3013 17.3338C19.1437 17.3338 18.9156 17.1501 18.9156 16.6248V11.712C18.9156 11.0815 18.7326 10.8005 18.2071 10.8005H14.3103C13.9164 10.8005 13.6794 11.0931 13.6794 11.3705C13.6794 11.9683 14.5725 12.1061 14.6646 13.7874V17.4392C14.6646 18.2398 14.52 18.385 14.2047 18.385C13.3641 18.385 11.3194 15.2974 10.1064 11.7646C9.86873 11.0779 9.63032 10.8005 8.99657 10.8005H6.51682C5.80833 10.8005 5.66663 11.1341 5.66663 11.502C5.66663 12.1587 6.50744 15.4164 9.58108 19.7248C11.6304 22.6668 14.5172 24.262 17.1443 24.262C18.7207 24.262 18.9156 23.9078 18.9156 23.2976V21.0738C18.9156 20.3653 19.0649 20.2239 19.5638 20.2239C19.9319 20.2239 20.5623 20.4078 22.0337 21.8264C23.7149 23.5075 23.9919 24.262 24.9378 24.262H27.4175C28.126 24.262 28.4803 23.9078 28.2759 23.2087C28.0524 22.5118 27.2496 21.5012 26.1844 20.3027C25.6064 19.6196 24.7394 18.884 24.4769 18.5163C24.109 18.0433 24.2141 17.8333 24.4769 17.4131C24.4769 17.4131 27.498 13.1572 27.8132 11.7122V11.712Z" fill="white"/>
</svg>
