<svg width="219" height="219" viewBox="0 0 219 219" fill="none" xmlns="http://www.w3.org/2000/svg">
<path d="M38.6425 32.8508C39.8152 33.9951 40.392 35.2623 40.3731 36.6714C40.3448 38.1183 39.7017 39.4895 38.4439 40.7851C37.1767 42.0901 35.8244 42.771 34.387 42.8278C32.9874 42.8845 31.7012 42.3455 30.5191 41.2012C29.337 40.0569 28.7696 38.7897 28.7885 37.3806C28.8075 35.9432 29.4505 34.5625 30.7177 33.2669C31.9755 31.9714 33.3278 31.2905 34.7747 31.2243C36.1838 31.1675 37.4699 31.7066 38.6425 32.8508ZM31.7012 34.2315C30.8785 35.0732 30.4719 35.9716 30.4719 36.9362C30.4908 37.9764 30.9541 38.941 31.862 39.83C32.7699 40.7189 33.7534 41.1539 34.7936 41.135C35.7582 41.1066 36.6471 40.6716 37.4604 39.83C38.2737 38.9883 38.6898 38.0899 38.6898 37.1253C38.6709 36.0851 38.2075 35.1205 37.2997 34.2315C36.3918 33.3426 35.4083 32.9076 34.3681 32.9265C33.4129 32.9454 32.524 33.3804 31.7012 34.2315Z" fill="white"/>
<path d="M44.3819 21.5972L48.2686 26.4107C49.1481 27.4982 49.5358 28.5101 49.4318 29.4558C49.3278 30.5149 48.5901 31.593 47.2378 32.69C45.876 33.787 44.6656 34.2787 43.6159 34.1558C42.6513 34.0329 41.7434 33.4371 40.8828 32.3779L36.9961 27.5644L38.4052 26.4296L42.1973 31.1202C42.4054 31.3755 42.5756 31.5741 42.7269 31.7254C42.8688 31.8767 43.0674 32.0186 43.3227 32.1699C43.578 32.3212 43.8428 32.4158 44.1171 32.4536C44.779 32.5481 45.5261 32.255 46.3489 31.5835C47.1716 30.9216 47.6161 30.2501 47.6728 29.5787C47.739 28.964 47.4364 28.2453 46.7744 27.4226L42.9823 22.732L44.3819 21.5972Z" fill="white"/>
<path d="M52.4201 28.3683L46.9541 19.7626L51.6163 16.8026C52.2594 16.3865 52.8457 16.0839 53.3469 15.8948C53.8576 15.6962 54.3588 15.6583 54.8505 15.7624C55.4936 15.8853 56.0326 16.2825 56.4582 16.9634C56.8743 17.6159 57.0161 18.2495 56.8837 18.8547C56.7986 19.3465 56.5244 19.8099 56.0799 20.226L56.0988 20.2544C56.5717 20.0558 57.0067 20.0085 57.4039 20.1125C57.593 20.1598 57.7821 20.2543 57.9618 20.3867C58.1415 20.5191 58.2644 20.6326 58.3401 20.7272C58.4157 20.8218 58.5292 20.9636 58.6805 21.1622L59.4371 22.2214C59.7964 22.7037 60.1747 23.0252 60.5624 23.1954L58.9075 24.2451C58.4725 24.0182 58.132 23.7061 57.8767 23.3278L57.2809 22.4672C56.9216 21.9471 56.5622 21.6445 56.1839 21.5594C55.7489 21.4743 55.191 21.654 54.4912 22.0984L51.7109 23.8668L53.9521 27.3942L52.4201 28.3683ZM49.2237 19.9706L50.9543 22.6847L53.9521 20.7839C54.5574 20.3962 54.9546 19.9896 55.1342 19.5735C55.3234 19.129 55.2572 18.6561 54.9451 18.1549C54.6614 17.7105 54.302 17.474 53.867 17.4362C53.4793 17.4079 52.8741 17.6537 52.0419 18.1833L49.2237 19.9706Z" fill="white"/>
<path d="M71.2115 14.372L72.942 13.606C73.3014 14.5516 73.3203 15.4595 73.0177 16.3295C72.7907 16.9537 72.4125 17.4643 71.8734 17.8899C71.3344 18.306 70.5968 18.7221 69.67 19.1382C68.8567 19.4976 68.0907 19.734 67.4004 19.8475C66.7006 19.9609 65.9724 19.8569 65.2064 19.5543C63.9865 19.0531 63.0408 18.0412 62.3693 16.5092C61.6979 14.9867 61.5939 13.5965 62.0667 12.3293C62.549 11.0337 63.6555 10.0029 65.3955 9.23692C66.7195 8.6506 67.8732 8.43309 68.8662 8.5844C70.001 8.76408 70.8616 9.35986 71.429 10.3812L69.6984 11.1472C69.3768 10.5703 68.9135 10.2204 68.3177 10.1069C67.6462 9.97455 66.8708 10.088 66.0102 10.4758C64.9132 10.9581 64.185 11.6389 63.8541 12.509C63.4947 13.4263 63.5798 14.4854 64.1094 15.677C64.6484 16.8969 65.3861 17.7008 66.3412 18.0979C67.1639 18.4195 68.1096 18.3344 69.1972 17.8521C70.1428 17.436 70.7859 16.9442 71.1169 16.3957C71.4479 15.7527 71.4857 15.0812 71.2115 14.372Z" fill="white"/>
<path d="M76.4215 13.3603L76.1189 16.1784L74.2559 16.7647L75.6366 5.64352L77.4712 5.06665L84.942 13.4076L83.0791 13.9939L81.1782 11.8755L76.4215 13.3603ZM76.5444 11.9417L80.3271 10.7596L77.0362 6.94855L76.5444 11.9417Z" fill="white"/>
<path d="M83.8838 3.24148L88.773 2.27688C90.1631 2.00264 91.2223 2.04046 91.9599 2.39982C92.7732 2.81592 93.2839 3.53464 93.4824 4.56543C93.6716 5.51111 93.5676 6.28657 93.1704 6.90126C92.9529 7.22279 92.6408 7.49704 92.2247 7.73346C91.8086 7.96988 91.4303 8.1401 91.0804 8.23467C90.74 8.32924 90.3239 8.43326 89.8227 8.52783L86.8816 9.11415L87.6287 12.8969L85.8603 13.2468L83.8838 3.24148ZM85.9265 4.26281L86.6168 7.73346L89.3593 7.19442C90.2388 7.0242 90.8251 6.79724 91.1372 6.51353C91.5722 6.11635 91.7235 5.57731 91.5911 4.89642C91.4776 4.3101 91.1655 3.90345 90.6643 3.68595C90.2671 3.52518 89.6052 3.53464 88.6784 3.72377L85.9265 4.26281Z" fill="white"/>
<path d="M96.7067 8.69812L95.8272 11.3933L93.8885 11.5824L97.5105 0.981372L99.4208 0.792236L105.029 10.4855L103.09 10.6746L101.662 8.20637L96.7067 8.69812ZM97.1133 7.33634L101.057 6.94862L98.617 2.5512L97.1133 7.33634Z" fill="white"/>
<path d="M106.116 0.281494L111.573 0.366605C112.84 0.385519 113.748 0.574655 114.268 0.934014C114.883 1.35957 115.185 2.00263 115.166 2.87266C115.157 3.60083 114.939 4.16824 114.514 4.58434C114.145 4.9437 113.682 5.14229 113.105 5.17066V5.21795C113.871 5.30306 114.485 5.56785 114.958 6.03123C115.412 6.4757 115.63 7.06202 115.611 7.7902C115.601 8.62239 115.356 9.26546 114.883 9.70047C114.24 10.3057 113.067 10.5894 111.355 10.561L105.937 10.4759L106.116 0.281494ZM107.828 5.87046L107.771 9.1898L111.034 9.24654C111.923 9.26546 112.547 9.18035 112.906 9.01012C113.114 8.92501 113.294 8.76425 113.455 8.52783C113.615 8.29141 113.701 7.98879 113.701 7.61052C113.71 7.10931 113.559 6.71212 113.237 6.41896C113.086 6.26765 112.868 6.15417 112.585 6.07851C112.301 6.00286 112.065 5.95558 111.866 5.94612C111.667 5.93666 111.384 5.92721 111.024 5.91775L107.828 5.87046ZM107.904 1.62436L107.856 4.5938L110.986 4.64108C111.781 4.65054 112.329 4.56543 112.641 4.37629C113.086 4.10204 113.313 3.68594 113.313 3.11854C113.322 2.59841 113.143 2.21068 112.774 1.97426C112.5 1.78513 111.97 1.6811 111.195 1.67164L107.904 1.62436Z" fill="white"/>
<path d="M118.382 0.716553L120.179 0.877318L119.262 11.0339L117.465 10.8732L118.382 0.716553Z" fill="white"/>
<path d="M129.484 11.0622L129.266 12.4429L121.568 11.2419L123.148 1.17041L124.935 1.44466L123.573 10.1355L129.484 11.0622Z" fill="white"/>
<path d="M132.463 2.79688L134.222 3.19406L131.99 13.1426L130.231 12.7454L132.463 2.79688Z" fill="white"/>
<path d="M139.367 5.98393L135.735 4.90585L136.133 3.56299L145.107 6.23926L144.71 7.58213L141.097 6.50405L138.582 14.9301L136.851 14.4099L139.367 5.98393Z" fill="white"/>
<path d="M146.932 6.98657L148.625 7.62018L145.04 17.1621L143.348 16.5285L146.932 6.98657Z" fill="white"/>
<path d="M151.291 13.3223L156.804 15.8662L156.218 17.1334L150.705 14.5895L149.4 17.4171L155.811 20.3771L155.225 21.6443L147.196 17.9467L151.461 8.68848L159.32 12.3104L158.734 13.5776L152.492 10.7028L151.291 13.3223Z" fill="white"/>
<path d="M157.467 19.1667L159.122 20.1502L159.093 20.1975C158.706 20.85 158.668 21.4553 158.989 22.0321C159.254 22.5144 159.793 23.0062 160.616 23.4885C161.354 23.9235 161.959 24.1694 162.451 24.2261C163.094 24.2829 163.585 24.0275 163.926 23.4601C164.172 23.044 164.162 22.5995 163.878 22.1456C163.661 21.8146 163.254 21.3891 162.668 20.8784L161.609 19.9611C161.562 19.9233 161.448 19.8192 161.249 19.649C161.051 19.4788 160.919 19.3653 160.852 19.2991C160.786 19.2329 160.663 19.1289 160.493 18.9776C160.323 18.8263 160.2 18.7033 160.124 18.5993C160.048 18.5047 159.954 18.3818 159.84 18.24C159.727 18.0981 159.642 17.9563 159.585 17.8239C159.519 17.6915 159.472 17.5496 159.434 17.4078C159.273 16.8498 159.368 16.2635 159.727 15.6677C160.257 14.7788 161.06 14.3059 162.138 14.2681C163.008 14.2492 164.011 14.5802 165.146 15.2611C166.451 16.0365 167.302 16.7931 167.68 17.5212C168.162 18.4291 168.153 19.3559 167.642 20.2921L166.016 19.3275C166.309 18.8263 166.281 18.3062 165.931 17.786C165.628 17.3321 165.127 16.9065 164.446 16.4904C163.793 16.1027 163.217 15.9041 162.706 15.8758C162.12 15.8568 161.703 16.0554 161.448 16.481C161.193 16.916 161.24 17.3699 161.599 17.8522C161.685 17.9563 161.779 18.0697 161.902 18.1927C162.015 18.3156 162.11 18.4102 162.195 18.4764C162.271 18.5426 162.432 18.6844 162.659 18.883C162.886 19.0816 163.056 19.2235 163.15 19.3086L164.087 20.1219C165.032 20.9351 165.628 21.616 165.845 22.174C166.129 22.9305 166.054 23.6776 165.619 24.4058C165.004 25.4366 164.143 25.9473 163.037 25.9189C162.337 25.9189 161.363 25.5501 160.105 24.803C158.885 24.0748 158.053 23.4507 157.618 22.9116C156.701 21.8241 156.644 20.5852 157.467 19.214V19.1667Z" fill="white"/>
<path d="M170.158 26.9876L171.227 25.5691L172.759 26.7228L171.69 28.1413L170.158 26.9876Z" fill="white"/>
<path d="M185.439 38.2316C184.305 39.4232 183.037 40.0095 181.638 40C180.191 39.9906 178.81 39.357 177.505 38.1087C176.191 36.8604 175.5 35.5081 175.415 34.0706C175.34 32.671 175.869 31.3754 177.004 30.1933C178.139 29.0018 179.406 28.4155 180.806 28.4249C182.243 28.4344 183.624 29.0585 184.938 30.3163C186.243 31.5646 186.943 32.9074 187.028 34.3543C187.094 35.7539 186.574 37.0401 185.439 38.2316ZM183.993 31.2998C183.141 30.4865 182.234 30.0893 181.279 30.0988C180.238 30.1271 179.274 30.6 178.394 31.5173C177.515 32.4346 177.089 33.4181 177.118 34.4584C177.155 35.423 177.6 36.3024 178.451 37.1157C179.302 37.929 180.21 38.3262 181.165 38.3167C182.205 38.2884 183.17 37.8155 184.049 36.8982C184.929 35.9809 185.354 34.9974 185.326 33.9477C185.288 33.002 184.844 32.1131 183.993 31.2998Z" fill="white"/>
<path d="M196.75 43.8586L191.974 47.7926C190.896 48.6815 189.884 49.0787 188.938 48.9936C187.879 48.899 186.792 48.1803 185.685 46.828C184.569 45.4757 184.068 44.2747 184.182 43.2155C184.295 42.2509 184.882 41.3336 185.941 40.4636L190.716 36.5295L191.861 37.9197L187.208 41.7497C186.953 41.9577 186.754 42.1374 186.612 42.2793C186.47 42.4211 186.319 42.6197 186.168 42.8751C186.016 43.1304 185.931 43.3952 185.893 43.6789C185.808 44.3409 186.101 45.0785 186.782 45.9107C187.454 46.724 188.125 47.159 188.797 47.2157C189.411 47.2725 190.13 46.9699 190.943 46.2984L195.596 42.4684L196.75 43.8586Z" fill="white"/>
<path d="M190.064 51.9725L198.613 46.4214L201.621 51.0552C202.037 51.6983 202.349 52.2751 202.547 52.7764C202.746 53.287 202.793 53.7882 202.689 54.28C202.576 54.9231 202.179 55.4621 201.498 55.8971C200.845 56.3227 200.221 56.4645 199.616 56.3416C199.124 56.2565 198.661 55.9917 198.235 55.5567L198.207 55.5756C198.405 56.0484 198.462 56.4834 198.358 56.8806C198.311 57.0697 198.216 57.2589 198.084 57.4386C197.951 57.6182 197.838 57.7412 197.753 57.8168C197.658 57.8925 197.516 58.006 197.318 58.1573L196.268 58.9233C195.786 59.2921 195.464 59.6704 195.304 60.0581L194.235 58.4126C194.462 57.9776 194.764 57.6277 195.143 57.3724L195.994 56.7671C196.514 56.4078 196.817 56.039 196.892 55.6607C196.968 55.2257 196.788 54.6677 196.334 53.9774L194.538 51.216L191.029 53.4951L190.064 51.9725ZM198.434 48.7005L195.739 50.45L197.677 53.4289C198.065 54.0341 198.481 54.4218 198.907 54.5921C199.351 54.7812 199.824 54.7055 200.316 54.384C200.76 54.1003 200.987 53.741 201.015 53.3059C201.044 52.9182 200.788 52.313 200.249 51.4902L198.434 48.7005Z" fill="white"/>
<path d="M204.231 70.5834L205.016 72.3045C204.07 72.6733 203.162 72.7017 202.292 72.4085C201.668 72.191 201.148 71.8128 200.723 71.2832C200.297 70.7536 199.881 70.016 199.455 69.0892C199.086 68.2759 198.841 67.5194 198.727 66.8196C198.604 66.1198 198.699 65.3916 199.001 64.6256C199.493 63.4057 200.496 62.4411 202.018 61.7507C203.531 61.0604 204.921 60.9469 206.198 61.4103C207.494 61.8737 208.543 62.9801 209.328 64.7107C209.924 66.0252 210.16 67.1789 210.019 68.1719C209.858 69.3162 209.262 70.1767 208.25 70.7536L207.465 69.0325C208.042 68.7109 208.383 68.2381 208.496 67.6329C208.628 66.952 208.496 66.186 208.108 65.3348C207.607 64.2379 206.926 63.5286 206.047 63.1976C205.12 62.8477 204.07 62.9423 202.879 63.4813C201.668 64.0298 200.864 64.7864 200.477 65.7415C200.165 66.5642 200.259 67.5194 200.751 68.5974C201.176 69.5431 201.668 70.1767 202.226 70.5077C202.85 70.8387 203.522 70.8671 204.231 70.5834Z" fill="white"/>
<path d="M205.308 75.8036L202.49 75.5293L201.885 73.6758L213.015 74.943L213.611 76.7682L205.346 84.3241L204.741 82.4706L206.84 80.5509L205.308 75.8036ZM206.717 75.917L207.947 79.6809L211.72 76.3521L206.717 75.917Z" fill="white"/>
<path d="M215.493 83.1702L216.505 88.0499C216.798 89.44 216.76 90.4992 216.411 91.2368C216.004 92.0501 215.295 92.5702 214.264 92.7877C213.318 92.9863 212.543 92.8918 211.928 92.504C211.606 92.296 211.323 91.9839 211.086 91.5678C210.85 91.1517 210.68 90.7734 210.576 90.433C210.472 90.0925 210.377 89.6764 210.273 89.1752L209.658 86.2342L205.876 87.0191L205.507 85.2507L215.493 83.1702ZM214.491 85.2223L211.03 85.941L211.597 88.6835C211.777 89.5535 212.013 90.1493 212.297 90.4614C212.694 90.8964 213.233 91.0382 213.923 90.8964C214.51 90.7734 214.916 90.4614 215.124 89.9602C215.276 89.563 215.257 88.901 215.068 87.9742L214.491 85.2223Z" fill="white"/>
<path d="M210.179 96.06L207.483 95.2089L207.275 93.2703L217.914 96.7882L218.122 98.6985L208.486 104.401L208.278 102.462L210.727 101.006L210.179 96.06ZM211.54 96.4478L211.966 100.382L216.335 97.9041L211.54 96.4478Z" fill="white"/>
<path d="M218.718 105.441L218.633 110.898C218.614 112.165 218.425 113.073 218.065 113.593C217.64 114.208 216.997 114.51 216.127 114.491C215.399 114.482 214.831 114.264 214.415 113.839C214.056 113.47 213.857 113.007 213.829 112.43H213.782C213.696 113.196 213.432 113.81 212.968 114.283C212.524 114.737 211.937 114.955 211.209 114.936C210.377 114.926 209.734 114.68 209.299 114.208C208.694 113.565 208.41 112.392 208.438 110.68L208.524 105.261L218.718 105.441ZM213.129 107.153L209.81 107.096L209.753 110.359C209.734 111.248 209.819 111.872 209.989 112.231C210.074 112.439 210.235 112.619 210.472 112.78C210.708 112.94 211.011 113.026 211.389 113.026C211.89 113.035 212.287 112.884 212.581 112.562C212.732 112.411 212.845 112.193 212.921 111.91C212.997 111.626 213.044 111.389 213.053 111.191C213.063 110.992 213.072 110.709 213.082 110.349L213.129 107.153ZM217.385 107.228L214.415 107.181L214.368 110.311C214.358 111.106 214.444 111.654 214.633 111.966C214.907 112.411 215.323 112.638 215.89 112.638C216.411 112.647 216.798 112.468 217.035 112.099C217.224 111.824 217.328 111.295 217.337 110.519L217.385 107.228Z" fill="white"/>
<path d="M218.368 117.65L218.227 119.447L208.061 118.633L208.202 116.837L218.368 117.65Z" fill="white"/>
<path d="M208.137 128.847L206.756 128.648L207.881 120.941L217.972 122.416L217.707 124.204L209.007 122.927L208.137 128.847Z" fill="white"/>
<path d="M216.421 131.731L216.043 133.499L206.075 131.372L206.453 129.603L216.421 131.731Z" fill="white"/>
<path d="M213.309 138.672L214.359 135.031L215.702 135.419L213.12 144.422L211.777 144.034L212.818 140.412L204.363 137.982L204.864 136.242L213.309 138.672Z" fill="white"/>
<path d="M212.382 146.257L211.767 147.949L202.188 144.46L202.802 142.767L212.382 146.257Z" fill="white"/>
<path d="M206.085 150.692L203.597 156.234L202.321 155.657L204.808 150.115L201.961 148.838L199.068 155.279L197.791 154.702L201.413 146.635L210.709 150.805L207.163 158.702L205.886 158.125L208.704 151.855L206.085 150.692Z" fill="white"/>
<path d="M200.296 156.924L199.332 158.588L199.284 158.56C198.632 158.182 198.017 158.153 197.45 158.465C196.967 158.73 196.485 159.279 196.012 160.101C195.587 160.839 195.341 161.454 195.294 161.946C195.246 162.589 195.502 163.08 196.078 163.411C196.495 163.657 196.939 163.638 197.393 163.355C197.724 163.128 198.14 162.721 198.641 162.125L199.549 161.057C199.587 161.009 199.691 160.886 199.852 160.697C200.012 160.508 200.126 160.366 200.192 160.3C200.258 160.234 200.362 160.111 200.514 159.941C200.665 159.771 200.788 159.648 200.882 159.562C200.977 159.487 201.1 159.392 201.242 159.279C201.384 159.165 201.526 159.08 201.658 159.014C201.79 158.948 201.932 158.9 202.074 158.863C202.632 158.692 203.218 158.787 203.814 159.137C204.713 159.657 205.185 160.461 205.233 161.529C205.252 162.399 204.939 163.402 204.268 164.546C203.502 165.861 202.755 166.721 202.036 167.109C201.128 167.601 200.202 167.601 199.265 167.1L200.221 165.463C200.731 165.747 201.242 165.719 201.762 165.369C202.216 165.057 202.641 164.556 203.039 163.875C203.417 163.222 203.616 162.636 203.634 162.135C203.653 161.548 203.445 161.132 203.02 160.877C202.585 160.622 202.121 160.678 201.648 161.038C201.544 161.123 201.431 161.227 201.318 161.34C201.195 161.454 201.109 161.558 201.034 161.633C200.968 161.709 200.835 161.87 200.637 162.097C200.438 162.333 200.296 162.494 200.221 162.598L199.417 163.544C198.613 164.499 197.932 165.095 197.383 165.331C196.627 165.624 195.88 165.558 195.142 165.123C194.102 164.518 193.591 163.667 193.601 162.56C193.591 161.86 193.96 160.877 194.688 159.619C195.398 158.39 196.022 157.558 196.551 157.113C197.629 156.177 198.868 156.12 200.249 156.924H200.296Z" fill="white"/>
<path d="M192.598 169.7L194.026 170.75L192.882 172.301L191.454 171.251L192.598 169.7Z" fill="white"/>
<path d="M181.515 185.067C180.314 183.952 179.709 182.684 179.709 181.285C179.709 179.838 180.324 178.448 181.553 177.133C182.792 175.809 184.135 175.1 185.572 175.005C186.972 174.92 188.267 175.431 189.468 176.556C190.669 177.672 191.265 178.939 191.275 180.339C191.284 181.777 190.669 183.167 189.431 184.491C188.201 185.815 186.858 186.514 185.411 186.618C184.012 186.704 182.716 186.193 181.515 185.067ZM188.428 183.554C189.232 182.694 189.62 181.786 189.601 180.821C189.563 179.781 189.081 178.826 188.154 177.956C187.227 177.086 186.234 176.67 185.194 176.708C184.229 176.755 183.35 177.209 182.546 178.06C181.742 178.921 181.355 179.828 181.373 180.793C181.411 181.833 181.894 182.788 182.82 183.658C183.747 184.528 184.74 184.945 185.78 184.907C186.745 184.869 187.634 184.415 188.428 183.554Z" fill="white"/>
<path d="M176.02 196.425L172.039 191.687C171.141 190.619 170.734 189.607 170.81 188.67C170.895 187.611 171.604 186.514 172.947 185.389C174.28 184.264 175.481 183.753 176.54 183.848C177.505 183.952 178.422 184.528 179.302 185.578L183.283 190.316L181.903 191.479L178.025 186.864C177.817 186.609 177.637 186.41 177.486 186.268C177.344 186.127 177.136 185.985 176.881 185.833C176.626 185.692 176.361 185.597 176.077 185.569C175.415 185.493 174.678 185.796 173.855 186.486C173.041 187.167 172.616 187.848 172.578 188.519C172.521 189.134 172.843 189.843 173.524 190.656L177.401 195.271L176.02 196.425Z" fill="white"/>
<path d="M167.841 189.824L173.477 198.316L168.881 201.371C168.238 201.797 167.671 202.109 167.17 202.317C166.668 202.525 166.167 202.572 165.666 202.477C165.023 202.364 164.474 201.976 164.03 201.305C163.604 200.662 163.444 200.028 163.567 199.423C163.642 198.931 163.907 198.468 164.342 198.033L164.323 198.004C163.85 198.212 163.415 198.269 163.018 198.175C162.829 198.127 162.64 198.042 162.46 197.91C162.28 197.777 162.148 197.673 162.072 197.579C161.997 197.484 161.883 197.342 161.722 197.144L160.947 196.104C160.569 195.631 160.19 195.309 159.803 195.148L161.439 194.061C161.874 194.278 162.224 194.581 162.488 194.959L163.103 195.81C163.472 196.321 163.841 196.624 164.219 196.699C164.654 196.775 165.212 196.586 165.902 196.122L168.645 194.307L166.337 190.827L167.841 189.824ZM171.198 198.146L169.42 195.46L166.46 197.427C165.865 197.825 165.477 198.241 165.307 198.666C165.127 199.111 165.203 199.584 165.524 200.075C165.817 200.51 166.177 200.747 166.612 200.766C166.999 200.785 167.605 200.529 168.418 199.99L171.198 198.146Z" fill="white"/>
<path d="M149.343 204.189L147.631 204.993C147.253 204.057 147.215 203.149 147.508 202.269C147.726 201.645 148.095 201.116 148.624 200.69C149.154 200.265 149.882 199.83 150.799 199.404C151.613 199.026 152.36 198.77 153.06 198.648C153.759 198.525 154.488 198.61 155.254 198.903C156.483 199.376 157.447 200.378 158.157 201.891C158.857 203.395 158.989 204.785 158.544 206.062C158.091 207.367 157.003 208.416 155.282 209.22C153.967 209.835 152.823 210.071 151.83 209.948C150.686 209.797 149.825 209.211 149.23 208.199L150.941 207.395C151.272 207.972 151.745 208.303 152.35 208.407C153.031 208.53 153.797 208.388 154.648 207.991C155.736 207.48 156.445 206.79 156.767 205.91C157.107 204.984 157.003 203.924 156.455 202.752C155.897 201.541 155.131 200.756 154.175 200.378C153.353 200.075 152.398 200.18 151.329 200.681C150.383 201.116 149.759 201.617 149.438 202.175C149.078 202.809 149.059 203.48 149.343 204.189Z" fill="white"/>
<path d="M144.142 205.305L144.397 202.487L146.251 201.863L145.097 213.003L143.272 213.617L135.631 205.428L137.485 204.804L139.433 206.884L144.142 205.305ZM144.057 206.723L140.303 207.991L143.669 211.726L144.057 206.723Z" fill="white"/>
<path d="M136.898 215.566L132.028 216.634C130.647 216.937 129.579 216.918 128.841 216.568C128.018 216.171 127.498 215.462 127.271 214.44C127.063 213.504 127.158 212.719 127.536 212.104C127.744 211.783 128.056 211.499 128.463 211.253C128.879 211.008 129.257 210.837 129.598 210.733C129.938 210.629 130.354 210.525 130.846 210.412L133.777 209.769L132.955 205.995L134.723 205.608L136.898 215.566ZM134.837 214.592L134.08 211.13L131.347 211.726C130.477 211.915 129.881 212.152 129.579 212.445C129.153 212.842 129.011 213.391 129.163 214.072C129.295 214.658 129.607 215.055 130.108 215.263C130.505 215.414 131.167 215.386 132.094 215.187L134.837 214.592Z" fill="white"/>
<path d="M123.952 210.383L124.774 207.679L126.713 207.452L123.309 218.119L121.398 218.346L115.592 208.766L117.53 208.539L119.006 210.97L123.952 210.383ZM123.573 211.745L119.639 212.208L122.164 216.559L123.573 211.745Z" fill="white"/>
<path d="M114.826 218.913L109.37 218.998C108.102 219.017 107.194 218.857 106.655 218.516C106.031 218.11 105.71 217.476 105.691 216.606C105.681 215.878 105.88 215.301 106.287 214.875C106.636 214.497 107.1 214.289 107.677 214.242V214.194C106.911 214.138 106.287 213.882 105.804 213.438C105.341 213.012 105.104 212.426 105.095 211.698C105.086 210.866 105.303 210.223 105.766 209.769C106.391 209.144 107.554 208.823 109.256 208.795L114.675 208.709L114.826 218.913ZM112.935 213.381L112.878 210.062L109.615 210.119C108.726 210.137 108.102 210.232 107.752 210.412C107.554 210.506 107.374 210.667 107.223 210.913C107.071 211.149 106.996 211.461 107.005 211.84C107.015 212.341 107.185 212.738 107.507 213.012C107.667 213.154 107.885 213.258 108.168 213.324C108.452 213.391 108.689 213.428 108.887 213.438C109.086 213.447 109.369 213.447 109.729 213.438L112.935 213.381ZM113.001 217.637L112.954 214.667L109.823 214.715C109.029 214.724 108.481 214.837 108.178 215.036C107.743 215.329 107.535 215.755 107.544 216.313C107.554 216.833 107.743 217.211 108.112 217.438C108.395 217.618 108.925 217.703 109.7 217.693L113.001 217.637Z" fill="white"/>
<path d="M102.457 218.79L100.66 218.667L101.379 208.501L103.176 208.624L102.457 218.79Z" fill="white"/>
<path d="M91.1465 208.662L91.3356 207.281L99.0524 208.331L97.6811 218.431L95.8938 218.185L97.0759 209.466L91.1465 208.662Z" fill="white"/>
<path d="M88.3564 216.984L86.588 216.625L88.6117 206.638L90.3801 206.998L88.3564 216.984Z" fill="white"/>
<path d="M81.3682 213.939L85.0185 214.951L84.6497 216.294L75.6279 213.797L75.9967 212.454L79.6282 213.457L81.9734 204.974L83.7135 205.456L81.3682 213.939Z" fill="white"/>
<path d="M73.7646 213.088L72.0624 212.483L75.4574 202.865L77.1596 203.47L73.7646 213.088Z" fill="white"/>
<path d="M69.2817 206.837L63.7116 204.407L64.2696 203.13L69.8397 205.56L71.088 202.704L64.6195 199.877L65.1774 198.6L73.2819 202.137L69.206 211.48L61.2812 208.019L61.8392 206.742L68.1374 209.494L69.2817 206.837Z" fill="white"/>
<path d="M62.9933 201.116L61.3194 200.17L61.3478 200.123C61.7261 199.461 61.745 198.856 61.4234 198.288C61.1492 197.806 60.6007 197.333 59.7685 196.86C59.0214 196.435 58.4067 196.208 57.9244 196.16C57.2814 196.113 56.7896 196.378 56.4681 196.955C56.2317 197.38 56.2506 197.815 56.5437 198.269C56.7707 198.6 57.1868 199.016 57.7826 199.508L58.8607 200.407C58.9079 200.444 59.0309 200.548 59.2295 200.709C59.4281 200.87 59.5605 200.983 59.6361 201.05C59.7023 201.116 59.8253 201.22 60.0049 201.362C60.1752 201.513 60.3075 201.636 60.3832 201.73C60.4589 201.825 60.5629 201.948 60.6764 202.09C60.7899 202.232 60.8844 202.374 60.9412 202.506C61.0074 202.638 61.0546 202.78 61.1019 202.922C61.2816 203.48 61.187 204.066 60.8466 204.672C60.3359 205.57 59.5415 206.052 58.4635 206.118C57.5934 206.147 56.591 205.844 55.4373 205.192C54.1133 204.435 53.2528 203.707 52.8556 202.988C52.3544 202.09 52.3449 201.163 52.8367 200.217L54.4822 201.154C54.1985 201.664 54.2457 202.175 54.5956 202.695C54.9077 203.14 55.4184 203.565 56.1087 203.953C56.7707 204.331 57.3476 204.52 57.8582 204.53C58.4446 204.539 58.8607 204.331 59.1065 203.896C59.3524 203.461 59.2957 202.998 58.9269 202.525C58.8417 202.421 58.7377 202.307 58.6242 202.194C58.5108 202.08 58.4067 201.986 58.3311 201.92C58.2554 201.853 58.0947 201.721 57.8582 201.522C57.6218 201.324 57.4516 201.191 57.357 201.106L56.4019 200.312C55.4373 199.518 54.8321 198.846 54.5956 198.298C54.293 197.551 54.3592 196.803 54.7848 196.056C55.3806 195.007 56.2317 194.487 57.3381 194.487C58.0379 194.468 59.0214 194.827 60.2886 195.546C61.518 196.246 62.3597 196.86 62.8136 197.38C63.7593 198.449 63.8349 199.688 63.0406 201.078L62.9933 201.116Z" fill="white"/>
<path d="M50.1504 193.55L49.1102 194.988L47.5498 193.862L48.5901 192.425L50.1504 193.55Z" fill="white"/>
<path d="M34.6607 182.628C35.7671 181.417 37.0249 180.803 38.4245 180.784C39.8714 180.765 41.2615 181.37 42.5949 182.59C43.9378 183.819 44.6565 185.153 44.7605 186.59C44.8645 187.99 44.3633 189.295 43.2569 190.505C42.1504 191.716 40.8927 192.33 39.4931 192.349C38.0556 192.368 36.656 191.772 35.3226 190.543C33.9892 189.323 33.2705 187.99 33.157 186.543C33.053 185.134 33.5542 183.829 34.6607 182.628ZM36.2399 189.522C37.11 190.316 38.0178 190.694 38.9824 190.666C40.0227 190.619 40.9778 190.127 41.8384 189.191C42.6989 188.255 43.1056 187.262 43.0583 186.221C43.0016 185.266 42.5382 184.387 41.6776 183.592C40.817 182.798 39.8997 182.42 38.9351 182.448C37.8949 182.495 36.9397 182.987 36.0792 183.923C35.2186 184.86 34.812 185.852 34.8592 186.893C34.916 187.848 35.3794 188.727 36.2399 189.522Z" fill="white"/>
<path d="M23.2363 177.228L27.9364 173.199C28.9955 172.291 29.9979 171.866 30.9436 171.941C32.0028 172.017 33.1092 172.717 34.244 174.041C35.3789 175.365 35.9084 176.556 35.8233 177.625C35.7288 178.59 35.1614 179.516 34.1211 180.405L29.4211 184.434L28.2484 183.063L32.8255 179.138C33.0809 178.921 33.27 178.741 33.4118 178.59C33.5537 178.438 33.6956 178.24 33.8374 177.984C33.9793 177.729 34.0644 177.455 34.0927 177.18C34.1684 176.519 33.8563 175.781 33.1565 174.968C32.4662 174.164 31.7853 173.748 31.1138 173.71C30.4992 173.663 29.7899 173.984 28.9861 174.674L24.409 178.599L23.2363 177.228Z" fill="white"/>
<path d="M29.7623 168.981L21.3269 174.703L18.225 170.135C17.79 169.501 17.478 168.934 17.2604 168.433C17.0524 167.932 16.9957 167.43 17.0902 166.929C17.1943 166.286 17.582 165.738 18.244 165.284C18.887 164.849 19.5112 164.688 20.1164 164.801C20.6082 164.877 21.081 165.132 21.516 165.558L21.5444 165.539C21.3363 165.076 21.2701 164.641 21.3647 164.234C21.412 164.035 21.4971 163.856 21.62 163.667C21.7524 163.487 21.8565 163.354 21.9416 163.279C22.0267 163.203 22.178 163.08 22.3671 162.929L23.3979 162.144C23.8708 161.766 24.1828 161.378 24.3436 160.99L25.45 162.617C25.2325 163.061 24.9394 163.411 24.5611 163.676L23.7194 164.3C23.2088 164.669 22.9156 165.047 22.84 165.425C22.7738 165.86 22.9724 166.418 23.4263 167.099L25.2704 169.823L28.7316 167.478L29.7623 168.981ZM21.4687 172.424L24.1355 170.617L22.1402 167.676C21.7335 167.08 21.3174 166.702 20.8919 166.532C20.4474 166.352 19.9746 166.437 19.4828 166.768C19.0478 167.062 18.8208 167.43 18.8019 167.865C18.783 168.253 19.0478 168.849 19.5963 169.662L21.4687 172.424Z" fill="white"/>
<path d="M15.2174 150.635L14.4042 148.924C15.3404 148.536 16.2482 148.489 17.1277 148.772C17.7519 148.98 18.2814 149.34 18.7165 149.869C19.1515 150.399 19.5865 151.118 20.0309 152.035C20.4187 152.839 20.674 153.595 20.8064 154.286C20.9388 154.976 20.8631 155.714 20.5794 156.489C20.1161 157.718 19.1326 158.702 17.6195 159.421C16.1253 160.139 14.7351 160.281 13.449 159.846C12.144 159.411 11.0754 158.333 10.2526 156.612C9.62847 155.307 9.37313 154.163 9.49607 153.17C9.63792 152.025 10.2148 151.155 11.2172 150.56L12.0305 152.271C11.4631 152.612 11.1226 153.085 11.0281 153.69C10.9146 154.371 11.0564 155.137 11.4631 155.988C11.9832 157.075 12.683 157.775 13.5625 158.087C14.4987 158.418 15.5484 158.295 16.7211 157.737C17.9221 157.16 18.707 156.394 19.0758 155.43C19.369 154.598 19.2555 153.652 18.7448 152.583C18.3004 151.647 17.7897 151.023 17.2317 150.711C16.5981 150.361 15.9267 150.342 15.2174 150.635Z" fill="white"/>
<path d="M14.0349 145.443L16.853 145.661L17.4961 147.505L6.3465 146.465L5.71289 144.649L13.8268 136.932L14.4699 138.776L12.4083 140.743L14.0349 145.443ZM12.6258 145.368L11.3208 141.623L7.61371 145.027L12.6258 145.368Z" fill="white"/>
<path d="M3.70856 138.313L2.59266 133.462C2.27113 132.081 2.28058 131.022 2.62103 130.275C3.00876 129.452 3.71802 128.922 4.73935 128.686C5.67557 128.469 6.46049 128.554 7.08464 128.922C7.40617 129.13 7.69933 129.433 7.94521 129.849C8.19108 130.265 8.37076 130.634 8.48425 130.975C8.58827 131.315 8.70175 131.731 8.81523 132.223L9.48667 135.145L13.2505 134.284L13.6571 136.043L3.70856 138.313ZM4.67315 136.242L8.12489 135.448L7.50074 132.724C7.30214 131.854 7.05627 131.268 6.77256 130.965C6.36592 130.54 5.82688 130.407 5.13654 130.558C4.55022 130.691 4.15303 131.012 3.95444 131.514C3.80313 131.92 3.84096 132.573 4.049 133.49L4.67315 136.242Z" fill="white"/>
<path d="M8.76834 125.31L11.4824 126.104L11.7283 128.043L1.02322 124.742L0.777344 122.832L10.2909 116.931L10.5368 118.87L8.11582 120.373L8.76834 125.31ZM7.39711 124.951L6.88644 121.026L2.56468 123.598L7.39711 124.951Z" fill="white"/>
<path d="M0.0960612 116.184L0.00149318 110.718C-0.0174204 109.451 0.143345 108.543 0.48379 108.004C0.890433 107.38 1.52404 107.058 2.39406 107.039C3.12224 107.03 3.6991 107.228 4.12466 107.635C4.50293 107.985 4.71098 108.448 4.75827 109.025H4.80555C4.86229 108.259 5.10817 107.635 5.56209 107.143C5.98765 106.68 6.57397 106.443 7.30214 106.434C8.13434 106.415 8.77741 106.642 9.24079 107.096C9.86494 107.72 10.1865 108.883 10.2148 110.585L10.3094 116.004L0.0960612 116.184ZM1.37273 114.349L4.34217 114.302L4.28542 111.172C4.27597 110.377 4.16249 109.829 3.96389 109.536C3.67073 109.101 3.24518 108.893 2.68723 108.902C2.1671 108.912 1.78883 109.101 1.56187 109.479C1.38219 109.763 1.29708 110.292 1.31599 111.068L1.37273 114.349ZM5.62829 114.283L8.94763 114.226L8.89089 110.964C8.87197 110.075 8.77741 109.451 8.59773 109.101C8.50316 108.902 8.34239 108.723 8.09652 108.571C7.8601 108.42 7.54802 108.344 7.16975 108.354C6.66854 108.363 6.27135 108.533 5.99711 108.855C5.85525 109.016 5.75123 109.233 5.68503 109.517C5.61883 109.801 5.58101 110.037 5.57155 110.236C5.56209 110.434 5.56209 110.718 5.57155 111.077L5.62829 114.283Z" fill="white"/>
<path d="M0.143372 103.89L0.256853 102.084L10.4324 102.699L10.3189 104.505L0.143372 103.89Z" fill="white"/>
<path d="M10.1578 92.4854L11.5479 92.6556L10.5739 100.382L0.455078 99.1146L0.682041 97.3272L9.41067 98.4242L10.1578 92.4854Z" fill="white"/>
<path d="M1.8078 89.7713L2.14825 87.9934L12.163 89.9226L11.8226 91.7005L1.8078 89.7713Z" fill="white"/>
<path d="M4.78633 82.7448L3.81228 86.4046L2.45996 86.0453L4.86199 76.9951L6.21431 77.3545L5.24972 80.9953L13.7514 83.2555L13.288 85.005L4.78633 82.7448Z" fill="white"/>
<path d="M5.5625 75.1511L6.14882 73.4395L15.7948 76.7399L15.2084 78.4516L5.5625 75.1511Z" fill="white"/>
<path d="M11.7657 70.6116L14.1393 65.0226L15.4255 65.5711L13.0518 71.1601L15.9172 72.38L18.6786 65.8832L19.9647 66.4317L16.513 74.5646L7.13184 70.5832L10.5174 62.6206L11.8035 63.1691L9.11776 69.4957L11.7657 70.6116Z" fill="white"/>
<path d="M17.4209 64.2566L18.3571 62.5733L18.4044 62.6016C19.0664 62.9705 19.6811 62.9894 20.239 62.6584C20.7119 62.3841 21.1847 61.8262 21.6481 60.994C22.0642 60.2469 22.2912 59.6322 22.329 59.1405C22.3668 58.4974 22.0926 58.0151 21.5157 57.6936C21.0902 57.4571 20.6551 57.4855 20.2012 57.7787C19.8702 58.0056 19.4636 58.4217 18.9718 59.027L18.0829 60.1145C18.0451 60.1618 17.9505 60.2847 17.7897 60.4833C17.629 60.6819 17.5155 60.8143 17.4587 60.89C17.3925 60.9656 17.2885 61.0886 17.1467 61.2588C17.0048 61.429 16.8819 61.5614 16.7873 61.6371C16.6927 61.7222 16.5698 61.8167 16.428 61.9302C16.2861 62.0437 16.1537 62.1383 16.0213 62.2045C15.8889 62.2707 15.7565 62.3274 15.6052 62.3652C15.0473 62.5449 14.4704 62.4693 13.8557 62.1288C12.9478 61.6276 12.4561 60.8332 12.3899 59.7646C12.3521 58.8946 12.6452 57.8922 13.2883 56.729C14.0259 55.3956 14.7541 54.5255 15.4634 54.1284C16.3618 53.6177 17.2791 53.5988 18.2342 54.0811L17.3169 55.736C16.8062 55.4618 16.2861 55.509 15.7754 55.8684C15.331 56.1899 14.9149 56.7006 14.5271 57.3909C14.1583 58.0529 13.9692 58.6392 13.9692 59.1499C13.9692 59.7362 14.1772 60.1523 14.6122 60.3888C15.0567 60.6346 15.5106 60.5684 15.9835 60.1996C16.0875 60.1145 16.201 60.0105 16.3145 59.8875C16.428 59.7646 16.5225 59.67 16.5887 59.5944C16.6549 59.5187 16.7873 59.358 16.9764 59.1215C17.1656 58.8851 17.3074 58.7149 17.3831 58.6109L18.168 57.6463C18.9529 56.6722 19.6149 56.067 20.1634 55.8211C20.9105 55.5185 21.6576 55.5658 22.4047 55.9819C23.4544 56.5682 23.9839 57.4099 23.9934 58.5163C24.0123 59.2161 23.6719 60.1996 22.9626 61.4763C22.2723 62.7151 21.667 63.5662 21.1469 64.0202C20.0877 64.9753 18.8489 65.0604 17.4493 64.285L17.4209 64.2566Z" fill="white"/>
<path d="M24.8538 51.3482L23.3975 50.3269L24.5039 48.7571L25.9603 49.7784L24.8538 51.3482Z" fill="white"/>
</svg>
