<svg width="150" height="87" viewBox="0 0 150 87" fill="none" xmlns="http://www.w3.org/2000/svg">
<path d="M34.3031 78.4716C34.1098 78.5697 31.3953 76.0547 31.1105 75.4873C30.9161 75.1022 37.3506 59.5863 43.1267 50.1156C49.8844 39.0358 56.3667 35.904 56.7542 36.0628C57.1417 36.2216 60.4191 39.5796 60.279 39.9917C60.0708 40.6137 55.1629 44.9421 39.6515 47.2588C29.1797 48.8227 22.1202 48.1068 22.2253 47.8163C22.6456 46.6508 25.1752 42.9734 25.4675 42.9354C25.6999 42.9061 30.2672 43.7954 40.641 43.2724C50.7843 42.7621 56.5259 39.4724 56.5259 39.4724L56.0164 38.9105C56.0164 38.9105 50.586 42.2608 43.865 55.9389C36.5069 70.9108 34.5278 78.3576 34.3031 78.4716Z" fill="white"/>
<path d="M27.4677 64.9079C27.1947 63.1117 28.6125 58.9714 28.7768 58.8809C35.8486 55.0006 48.7123 53.2625 48.825 53.4906C48.8813 53.6038 48.55 53.9379 47.6574 56.1291C47.5942 56.2843 44.8659 56.4462 37.9092 59.4024C29.5695 62.9474 27.489 65.0522 27.4675 64.9063L27.4677 64.9079Z" fill="white"/>
<path d="M52.0542 28.9238C49.2042 32.4921 45.3244 33.8201 45.0296 33.7235C44.7723 33.64 44.662 31.9342 45.7386 28.4001C46.6404 25.4406 47.57 23.6751 47.5681 23.5635C47.5633 23.3651 46.4606 22.2062 46.2745 22.2197C45.7864 22.2558 42.3754 27.1782 41.4657 33.3333C41.3428 34.1711 44.1666 36.0418 44.4999 36.0017C46.376 35.7758 50.1273 32.8489 52.4896 29.5203C52.325 29.3364 52.1757 29.1396 52.0542 28.9238Z" fill="white"/>
<path d="M44.9462 22.9946C44.9541 22.7375 43.5279 21.6358 43.2422 21.6387C42.9992 21.641 39.0197 22.6312 36.1446 27.6448C34.0415 31.313 35.0064 34.5059 35.2028 34.8414C35.6501 35.6062 37.1517 36.8325 37.5795 36.8923C37.8857 36.9352 41.525 35.9085 43.7373 30.9616C44.1089 30.1292 43.6317 30.7756 43.2059 30.6827C42.78 30.5899 40.5862 34.3633 37.7576 34.9418C37.4639 35.0013 37.2486 30.8497 40.7804 26.5343C42.8516 24.0013 44.9438 23.1854 44.9478 22.9944L44.9462 22.9946Z" fill="white"/>
<path d="M137.377 21.1889C134.527 24.7572 130.647 26.0852 130.353 25.9886C130.095 25.9052 129.985 24.1994 131.062 20.6653C131.964 17.7058 132.893 15.9402 132.891 15.8287C132.886 15.6302 131.784 14.4713 131.598 14.4849C131.109 14.5209 127.698 19.4434 126.789 25.5985C126.666 26.4363 129.49 28.3069 129.823 28.2669C131.699 28.0409 135.45 25.114 137.813 21.7855C137.648 21.6015 137.499 21.4047 137.377 21.1889Z" fill="white"/>
<path d="M130.269 15.2597C130.277 15.0026 128.851 13.9009 128.565 13.9038C128.322 13.9061 124.343 14.8963 121.468 19.9099C119.365 23.5781 120.329 26.771 120.526 27.1066C120.973 27.8713 122.475 29.0977 122.903 29.1575C123.209 29.2004 126.848 28.1736 129.06 23.2267C129.432 22.3943 128.955 23.0407 128.529 22.9479C128.103 22.855 125.909 26.6284 123.081 27.207C122.787 27.2665 122.572 23.1148 126.103 18.7994C128.175 16.2664 130.267 15.4506 130.271 15.2596L130.269 15.2597Z" fill="white"/>
<path d="M64.2496 59.1364C61.3995 62.7048 57.5197 64.0327 57.2249 63.9362C56.9676 63.8527 56.8573 62.1469 57.9339 58.6128C58.8358 55.6533 59.7653 53.8878 59.7634 53.7762C59.7586 53.5778 58.6559 52.4188 58.4698 52.4324C57.9817 52.4684 54.5707 57.3909 53.661 63.546C53.5381 64.3838 56.3619 66.2544 56.6952 66.2144C58.5713 65.9884 62.3226 63.0615 64.6849 59.733C64.5203 59.5491 64.371 59.3522 64.2496 59.1364Z" fill="white"/>
<path d="M57.143 53.2053C57.1509 52.9482 55.7247 51.8465 55.439 51.8494C55.196 51.8517 51.2165 52.8419 48.3413 57.8555C46.2382 61.5237 47.2032 64.7166 47.3996 65.0521C47.8469 65.8169 49.3484 67.0432 49.7762 67.103C50.0825 67.1459 53.7218 66.1192 55.9341 61.1723C56.3057 60.3399 55.8285 60.9863 55.4026 60.8934C54.9768 60.8006 52.783 64.574 49.9544 65.1525C49.6607 65.212 49.4454 61.0604 52.9772 56.745C55.0484 54.212 57.1405 53.3961 57.1446 53.2051L57.143 53.2053Z" fill="white"/>
<path d="M58.8096 21.552C58.7421 21.4053 57.3795 20.1352 57.0414 20.1034C56.801 20.0808 52.9086 21.2882 50.3043 26.389C48.3992 30.1198 49.5067 33.2357 49.7183 33.5584C50.1975 34.2939 51.744 35.4356 52.1699 35.4743C52.4748 35.5025 58.4031 35.1245 61.7269 27.6626C62.0941 26.8372 61.4284 27.0536 61.1865 27.4125C57.4458 32.9762 52.8512 34.0156 52.2504 33.5343C52.0184 33.3499 51.5502 29.5088 54.837 25.066C55.7419 23.8434 57.5297 22.263 57.5126 22.4552C57.4057 23.6695 56.1937 25.6185 56.1922 25.801C56.1891 26.0396 57.2369 27.4632 57.5972 27.5768C57.7359 27.6201 58.3327 26.4616 58.7669 24.7245C59.2675 22.7234 58.8765 21.6922 58.8095 21.5504L58.8096 21.552Z" fill="white"/>
<path d="M25.9593 11.4302C25.6401 11.2454 20.7012 11.3875 14.2314 14.7104C6.66995 18.5924 2.23535 24.4244 2.30832 24.7761C2.36323 25.0374 3.58738 28.57 3.92065 28.548C4.18354 28.5291 8.36912 21.201 15.3739 17.3793C19.9624 14.8762 23.4999 13.9967 23.6893 14.0913C23.9458 14.2192 24.6956 16.0363 24.6252 16.1841C24.4732 16.5019 22.3292 18.7949 16.4066 23.2236C16.1003 23.4519 15.9488 26.059 15.9488 26.059C15.9488 26.059 22.0088 27.1893 22.362 27.8952C22.7436 28.6593 22.5479 33.7159 15.3589 38.4615C8.85695 42.7537 4.42074 43.8362 4.14637 44.1454C3.74527 44.5976 3.12289 49.8425 3.31727 49.9744C3.52559 50.1149 17.1996 44.4626 23.7473 34.945C25.2052 32.8259 26.4847 27.8501 24.7196 25.4923C24.1118 24.6797 19.6127 23.9092 19.8567 23.7359C23.8149 20.9151 27.9395 16.5952 28.0862 16.2187C28.2344 15.8421 26.5076 11.7502 25.9577 11.4303L25.9593 11.4302Z" fill="white"/>
<path d="M19.1 17.2374C18.6162 17.4489 12.3596 25.3723 10.1459 35.0361C10.1002 35.2391 13.4189 38.0362 13.486 37.9611C13.6236 37.8105 14.5746 32.6739 16.7158 26.4713C18.7623 20.5468 20.743 18.0483 20.7109 17.9115C20.6719 17.7539 19.2992 17.1503 19.1 17.2374Z" fill="white"/>
<path d="M107.888 4.00291C107.569 3.81819 102.63 3.96023 96.1606 7.28313C88.5992 11.1651 84.1645 16.9972 84.2375 17.3488C84.2924 17.6101 85.5166 21.1427 85.8498 21.1207C86.1127 21.1018 90.2983 13.7738 97.3031 9.95209C101.892 7.44892 105.429 6.56945 105.619 6.66404C105.875 6.79199 106.625 8.60908 106.554 8.75681C106.402 9.07463 104.258 11.3677 98.3358 15.7963C98.0295 16.0246 97.878 18.6318 97.878 18.6318C97.878 18.6318 103.938 19.762 104.291 20.4679C104.673 21.2321 104.477 26.2887 97.2881 31.0343C90.7861 35.3264 86.3499 36.409 86.0756 36.7182C85.6745 37.1703 85.0521 42.4152 85.2465 42.5471C85.4548 42.6877 99.1289 37.0354 105.676 27.5177C107.134 25.3986 108.414 20.4229 106.649 18.0651C106.041 17.2524 101.542 16.4819 101.786 16.3086C105.744 13.4879 109.869 9.16798 110.015 8.79147C110.164 8.41482 108.437 4.32299 107.887 4.00306L107.888 4.00291Z" fill="white"/>
<path d="M101.028 9.81017C100.544 10.0217 94.2872 17.945 92.0736 27.6088C92.0279 27.8118 95.3465 30.6089 95.4136 30.5338C95.5512 30.3833 96.5022 25.2467 98.6435 19.044C100.69 13.1195 102.671 10.621 102.638 10.4842C102.6 10.3267 101.227 9.72309 101.028 9.81017Z" fill="white"/>
<path d="M119.323 16.9161C119.257 16.4667 117.293 14.8353 116.883 14.8068C116.537 14.7822 112.966 15.9902 110.647 20.268C108.247 24.6928 108.676 29.001 110.644 30.1619C111.118 30.4411 113.388 30.2057 115.777 28.7335C117.961 27.3884 121.077 24.5356 122.272 22.0048C123.468 19.4739 123.889 19.2664 122.893 19.6082C121.897 19.9499 120.629 23.6756 116.619 26.5421C113.383 28.857 111.637 28.3496 111.634 28.1723C111.537 21.5695 116.634 17.5329 117.448 17.4295C117.549 17.4171 117.957 17.7876 117.94 17.8762C117.752 18.8203 116.745 20.3512 113.596 22.2193C113.526 22.2602 113.773 25.4229 113.923 25.3764C115.416 24.914 120.018 21.6684 119.324 16.9175L119.323 16.9161Z" fill="white"/>
<path d="M137.803 14.406C137.948 14.2663 136.626 13.0434 136.428 13.0713C135.66 13.1819 133.563 15.0451 133.562 17.139C133.562 17.5383 135.548 19.2844 136.11 19.1711C137.254 18.9424 138.513 18.0855 138.777 17.8889C139.095 17.6531 136.122 21.719 136.103 26.0727C136.099 26.8684 138.534 28.1482 138.715 28.0824C140.903 27.2892 144.134 23.2607 144.358 22.7178C144.398 22.6204 143.921 22.215 143.83 22.3038C143.519 22.608 140.311 25.8638 138.873 26.1206C138.579 26.1736 139.441 22.2365 140.81 19.7146C142.863 15.9326 143.67 15.0048 143.697 14.672C143.711 14.5015 142.626 13.6187 142.024 13.3808C141.903 13.3326 140.627 14.6825 138.922 15.7475C137.384 16.7087 136.5 17.111 136.33 17.0359C136.19 16.9731 136.851 15.3272 137.803 14.406Z" fill="white"/>
<path d="M29.7683 28.4299C35.7384 20.6098 37.5223 16.484 37.5481 16.3519C37.5638 16.2715 37.1778 15.3484 37.102 15.4013C36.8083 15.6054 34.5369 18.523 31.7051 24.596C29.0728 30.24 28.4721 34.7811 28.6995 35.0235C28.9125 35.2523 32.1066 33.3752 35.7554 29.4633C35.9397 29.2658 36.5553 30.0925 36.3439 30.3533C32.7486 34.801 28.2546 37.9843 27.6849 37.8091C27.2724 37.6822 26.4538 35.8499 26.3588 35.2915C26.2471 34.6394 26.3681 29.2477 30.1764 20.7492C33.6455 13.0045 37.1917 10.1176 37.4959 10.21C37.9253 10.342 40.1244 15.4741 39.9303 16.343C39.8683 16.6198 34.8381 25.5084 29.3171 30.1242C29.0864 30.3177 29.7665 28.4285 29.7665 28.4285L29.7683 28.4299Z" fill="white"/>
<path d="M96.7996 53.5826C102.77 45.7624 104.554 41.6366 104.579 41.5045C104.595 41.4241 104.209 40.501 104.133 40.5539C103.84 40.758 101.568 43.6756 98.7365 49.7486C96.1042 55.3926 95.5034 59.9338 95.7308 60.1761C95.9439 60.4049 99.1379 58.5278 102.787 54.6159C102.971 54.4184 103.587 55.2451 103.375 55.5059C99.7799 59.9537 95.286 63.1369 94.7162 62.9617C94.3037 62.8348 93.4852 61.0025 93.3902 60.4442C93.2785 59.792 93.3994 54.4003 97.2077 45.9018C100.675 38.1589 104.222 35.272 104.526 35.366C104.955 35.498 107.154 40.6301 106.96 41.499C106.898 41.7758 101.868 50.6644 96.3471 55.2802C96.1164 55.4737 96.7965 53.5845 96.7965 53.5845L96.7996 53.5826Z" fill="white"/>
<path d="M66.4311 9.06923C66.1617 9.21527 63.2691 14.4539 61.3317 21.9808C59.3944 29.5077 59.1816 32.3817 59.2755 32.6378C59.3694 32.8939 60.6825 34.254 60.8928 34.3072C61.0475 34.3458 61.9544 30.6446 64.6513 25.1328C67.3482 19.621 70.0338 17.1753 70.2269 17.1841C70.42 17.1929 70.8415 18.0356 70.7875 18.2558C70.7335 18.476 65.5991 24.475 65.2991 25.3716C64.9991 26.2682 66.1343 31.2124 68.8796 32.9784C71.6249 34.7444 80.8297 32.5295 81.504 32.1906C82.1767 31.8519 84.51 27.7322 84.2954 27.4854C84.0807 27.2386 73.9198 31.6521 70.2179 30.2653C68.4434 29.5995 66.7212 26.1383 66.7013 25.9002C66.6813 25.6621 73.5007 19.885 73.7624 19.1464C73.9544 18.5998 71.7072 13.8977 71.0711 13.7154C70.6374 13.5904 68.577 15.917 66.7479 18.7091C65.0112 21.3613 63.4897 24.4838 63.4897 24.4838C63.4897 24.4838 64.1649 21.8522 66.284 17.0912C67.6083 14.1148 68.8443 12.1752 68.8129 11.9381C68.7682 11.5905 66.7948 8.8752 66.4313 9.07086L66.4311 9.06923Z" fill="white"/>
<path d="M91.7299 51.8465C91.73 51.5934 90.1455 49.1798 89.7279 49.1421C89.5009 49.1216 86.3812 55.8616 86.2912 61.686C86.2861 62.0464 87.3182 63.8231 87.9714 64.012C88.3748 64.1299 92.2399 61.0613 93.759 58.856C95.2798 56.6507 94.567 55.8393 93.0157 57.6185C90.878 60.0704 88.8737 61.5833 88.6464 61.5777C88.5015 61.5744 88.7989 59.6706 89.8463 56.7028C90.8699 53.7997 91.7285 52.1211 91.7284 51.8483L91.7299 51.8465Z" fill="white"/>
<path d="M87.4618 44.2674C87.4929 44.4109 88.4702 45.0027 89.986 46.5498C91.0219 47.6064 91.4056 48.5215 91.582 48.6008C91.8837 48.7378 93.6543 48.4541 93.8533 48.0745C94.2079 47.3997 92.6551 43.3233 91.8112 42.989C90.7117 42.5529 87.4276 44.1078 87.4618 44.2674Z" fill="white"/>
<path d="M61.366 64.6209C61.9365 61.8673 66.3032 52.2762 66.743 52.1788C67.1828 52.0814 68.6403 53.5829 68.6584 53.9461C68.6764 54.3077 66.271 60.5507 66.2429 60.9296C66.2148 61.3085 68.4585 56.9077 70.3457 54.2665C72.233 51.6252 73.9682 49.7735 74.2532 49.8348C74.5365 49.8962 76.2479 51.6787 76.3927 52.0255C76.5376 52.3723 74.4535 56.5762 73.9205 58.457C73.8195 58.8113 75.1987 56.6024 77.9267 53.2111C79.2221 51.6014 81.1219 49.932 81.3263 49.9939C81.5308 50.0559 83.3739 52.0944 83.3241 52.4161C83.2542 52.8777 80.7342 61.7722 80.8761 61.9598C81.018 62.1474 85.2484 58.1237 86.8189 55.9417C88.8377 53.1374 88.7976 54.9801 86.8449 57.642C83.6664 61.9747 80.0584 64.8147 79.7447 64.8168C79.431 64.819 77.1856 62.6033 77.1935 62.1096C77.2186 60.4293 80.2309 53.0663 80.2309 53.0663C80.2309 53.0663 78.4505 55.1999 76.1735 58.6538C73.4919 62.7212 72.5069 64.5641 72.3596 64.5167C71.6763 64.3025 69.4959 62.2601 69.5872 61.7802C69.9165 60.046 73.6284 52.8776 73.6284 52.8776C73.6284 52.8776 71.7327 55.0808 68.6175 60.4021C65.8255 65.1731 64.4989 67.6534 64.2719 67.5605C63.1728 67.1113 61.315 64.8556 61.3631 64.6244L61.366 64.6209Z" fill="white"/>
<path d="M84.7307 45.1247C84.8391 44.8338 81.9786 42.0149 81.0778 41.9404C80.177 41.866 77.5074 42.7835 73.2849 44.7736C68.4211 47.0667 66.0343 49.0925 65.8563 49.3223C65.7547 49.4531 65.7228 50.3155 65.8673 50.4224C65.9784 50.506 69.4221 48.6095 74.5463 47.0669C80.3888 45.3079 84.617 45.4292 84.7322 45.1229L84.7307 45.1247Z" fill="white"/>
<path d="M112.409 53.4559C108.784 57.3197 104.988 59.2645 104.758 59.2969C104.514 59.3321 106.134 54.3946 107.805 50.6127C108.003 50.1658 106.094 46.5309 105.775 46.7653C105.429 47.0168 101.683 55.0726 102.02 60.0973C102.066 60.7851 103.466 62.3575 103.772 62.3988C104.384 62.4797 108.568 59.7058 112.619 54.4098C112.543 54.093 112.468 53.776 112.408 53.4544L112.409 53.4559Z" fill="white"/>
<path d="M114.827 45.8033C114.731 46.0849 110.449 64.0993 96.4636 70.5424C76.8777 79.564 55.5995 73.7965 55.3801 74.2042C55.1606 74.612 59.2514 78.8199 60.5476 79.5027C61.8437 80.1856 84.1103 82.6784 98.9782 72.8454C112.328 64.0144 116.386 48.7863 116.473 48.2936C116.559 47.8009 114.95 45.4421 114.827 45.8033Z" fill="white"/>
</svg>
